# xmcd
# Copyright (C) 1995-1998 Ti Kan
#
# Track frame offsets:
#       150
#       13540
#       29452
#       44609
#       60823
#       75110
#       92540
#       113409
#       137575
#       155151
#       173103
#       188690
#       200436
#       215962
#       224775
#
# Disc length: 3084 seconds
#
# Revision: 0
# Processed by: cddbd v1.5.2PL0 Copyright (c) Steve Scherf et al.
# Submitted via: CD-Import v1.0
#
DISCID=c80c0a0f
DTITLE=Fogel - Of The Dead
DYEAR=2009
DGENRE=
TTITLE0=Moahfogel
TTITLE1=Dope, Funk, Rock 'n' Roll
TTITLE2=Heeey, Hoooh
TTITLE3=Dräcksverein
TTITLE4=Of The Dead
TTITLE5=Brotlosi Kunscht
TTITLE6=Du Tubbel
TTITLE7=Erschaffe Zum Töte
TTITLE8=Immer S'falsche
TTITLE9=Mis Langwilige Läbe
TTITLE10=Chlaumer Kei Bier
TTITLE11=Afterhour
TTITLE12=Baby
TTITLE13=Wieso, Wieso, Wieso?
TTITLE14=Two Grils One Cup
EXTD=
EXTT0=
EXTT1=
EXTT2=
EXTT3=
EXTT4=
EXTT5=
EXTT6=
EXTT7=
EXTT8=
EXTT9=
EXTT10=
EXTT11=
EXTT12=
EXTT13=
EXTT14=
PLAYORDER=
